# xmcd CD database file
#
# Track frame offsets:
#	150
#	24528
#	37680
#	63760
#	81948
#	100652
#	124407
#	141223
#	159778
#	171500
#	182423
#	206787
#
# Disc length: 2960 seconds
#
# Revision: 0
# Processed by: cddbd v1.4PL0 Copyright (c) Steve Scherf et al.
# Submitted via: CDex 1.50beta9
#
DISCID=970b8e0c
DTITLE=Blue Lunch - Recorded Live at Wilbert's
DYEAR=1997
DGENRE=Blues
TTITLE0=Tell Me What's The Reason
TTITLE1=Unchain My Heart
TTITLE2=The Things That I Used To Do
TTITLE3=Mellow Down Easy
TTITLE4=See See Baby
TTITLE5=Cold, Cold Feeling
TTITLE6=Big Fat Mamas Are Back In Style Again
TTITLE7=Well I Done Got Over It
TTITLE8=One More Chance With You
TTITLE9=Teach Me (How To Love You)
TTITLE10=At Last
TTITLE11=Cuttin Out (Like a Mohel)
EXTD=YEAR: 1997
EXTT0=
EXTT1=
EXTT2=
EXTT3=
EXTT4=
EXTT5=
EXTT6=
EXTT7=
EXTT8=
EXTT9=
EXTT10=
EXTT11=
PLAYORDER=
